<svg xmlns="http://www.w3.org/2000/svg" viewBox="0 0 48.5 48.5"><defs><style>.cls-1{fill:#33475b;}.cls-2{fill:none;}</style></defs><title>instagram</title><g id="레이어_2" data-name="레이어 2"><g id="레이어_1-2" data-name="레이어 1"><path id="Fill-1" class="cls-1" d="M24.25,10c-3.88,0-4.36,0-5.89.09a10.48,10.48,0,0,0-3.47.66,7.3,7.3,0,0,0-4.18,4.18,10.48,10.48,0,0,0-.66,3.47c-.07,1.52-.09,2-.09,5.89s0,4.36.09,5.89a10.48,10.48,0,0,0,.66,3.47,7.3,7.3,0,0,0,4.18,4.18,10.48,10.48,0,0,0,3.47.66c1.52.07,2,.09,5.89.09s4.36,0,5.89-.09a10.48,10.48,0,0,0,3.47-.66,7.3,7.3,0,0,0,4.18-4.18,10.48,10.48,0,0,0,.66-3.47c.07-1.52.09-2,.09-5.89s0-4.36-.09-5.89a10.48,10.48,0,0,0-.66-3.47,7.3,7.3,0,0,0-4.18-4.18,10.48,10.48,0,0,0-3.47-.66c-1.52-.07-2-.09-5.89-.09m0,2.57c3.81,0,4.26,0,5.77.08a7.9,7.9,0,0,1,2.65.49,4.73,4.73,0,0,1,2.71,2.71,7.9,7.9,0,0,1,.49,2.65c.07,1.51.08,2,.08,5.77s0,4.26-.08,5.77a7.9,7.9,0,0,1-.49,2.65,4.73,4.73,0,0,1-2.71,2.71,7.9,7.9,0,0,1-2.65.49c-1.51.07-2,.08-5.77.08s-4.26,0-5.77-.08a7.9,7.9,0,0,1-2.65-.49,4.73,4.73,0,0,1-2.71-2.71A7.9,7.9,0,0,1,12.63,30c-.07-1.51-.08-2-.08-5.77s0-4.26.08-5.77a7.9,7.9,0,0,1,.49-2.65,4.73,4.73,0,0,1,2.71-2.71,7.9,7.9,0,0,1,2.65-.49c1.51-.07,2-.08,5.77-.08"/><path id="Fill-4" class="cls-1" d="M24.25,16.56a7.69,7.69,0,1,0,7.69,7.69,7.69,7.69,0,0,0-7.69-7.69m0,12.63a4.94,4.94,0,1,1,4.94-4.94,4.94,4.94,0,0,1-4.94,4.94"/><path id="Fill-6" class="cls-1" d="M33.8,16.67A1.76,1.76,0,1,1,32,14.92a1.76,1.76,0,0,1,1.76,1.76"/><rect class="cls-2" width="48.5" height="48.5"/></g></g></svg>