<?xml version="1.0" encoding="utf-8"?>
<!-- Generator: Adobe Illustrator 21.0.2, SVG Export Plug-In . SVG Version: 6.00 Build 0)  -->
<svg version="1.1" id="레이어_1" xmlns="http://www.w3.org/2000/svg" xmlns:xlink="http://www.w3.org/1999/xlink" x="0px"
	 y="0px" viewBox="0 0 48.5 48.5" style="enable-background:new 0 0 48.5 48.5;" xml:space="preserve">
<style type="text/css">
	.st0{fill:none;stroke:#33475B;stroke-width:1.5;stroke-linecap:round;stroke-linejoin:round;}
	.st1{fill:none;stroke:#33475B;stroke-width:1.5;stroke-linejoin:round;}
	.st2{fill:none;}
</style>
<title>search</title>
<g>
	<path class="st0" d="M37.5,21.5c4.8-5.3,3.8-14.3,3.8-14.3S32.2,6.2,27,11l0,0L12,26l10.5,10.5L37.5,21.5L37.5,21.5z"/>
	<g>
		<polygon class="st0" points="30.3,28.7 22.5,36.5 27.4,41.4 		"/>
		<polygon class="st0" points="7.1,21.1 12,26 19.8,18.2 		"/>
	</g>
	<ellipse transform="matrix(0.7071 -0.7071 0.7071 0.7071 -1.6955 27.7083)" class="st0" cx="32.6" cy="15.9" rx="3.3" ry="3.3"/>
	<line class="st1" x1="15.8" y1="32.4" x2="9.6" y2="38.6"/>
	<line class="st1" x1="12.2" y1="28.7" x2="8.9" y2="32"/>
	<line class="st1" x1="19.8" y1="36.4" x2="16.4" y2="39.7"/>
</g>
<polyline class="st2" points="0,48.5 0,0 48.5,0 48.5,48.5 "/>
</svg>
