<?xml version="1.0" encoding="utf-8"?>
<!-- Generator: Adobe Illustrator 21.0.2, SVG Export Plug-In . SVG Version: 6.00 Build 0)  -->
<svg version="1.1" id="레이어_1" xmlns="http://www.w3.org/2000/svg" xmlns:xlink="http://www.w3.org/1999/xlink" x="0px"
	 y="0px" viewBox="0 0 48.5 48.5" style="enable-background:new 0 0 48.5 48.5;" xml:space="preserve">
<style type="text/css">
	.st0{fill:none;}
	.st1{fill:none;stroke:#33475B;stroke-width:2.5;stroke-linecap:round;stroke-linejoin:round;}
	.st2{fill:#33475B;}
</style>
<title>image</title>
<rect y="0" class="st0" width="48.5" height="48.5"/>
<line class="st1" x1="14.3" y1="12.2" x2="40.6" y2="12.2"/>
<line class="st1" x1="14.3" y1="36.2" x2="40.6" y2="36.2"/>
<line class="st1" x1="14.3" y1="24.2" x2="40.6" y2="24.2"/>
<path class="st2" d="M8.6,13.7c-0.8,0-1.5-0.7-1.5-1.5c0-0.8,0.6-1.5,1.5-1.5h0c0.8,0,1.5,0.7,1.5,1.5C10.1,13,9.4,13.7,8.6,13.7z"
	/>
<path class="st2" d="M8.6,37.7c-0.8,0-1.5-0.7-1.5-1.5c0-0.8,0.6-1.5,1.5-1.5h0c0.8,0,1.5,0.7,1.5,1.5C10.1,37,9.4,37.7,8.6,37.7z"
	/>
<path class="st2" d="M8.6,25.7c-0.8,0-1.5-0.7-1.5-1.5c0-0.8,0.6-1.5,1.5-1.5h0c0.8,0,1.5,0.7,1.5,1.5C10.1,25,9.4,25.7,8.6,25.7z"
	/>
</svg>
