<?xml version="1.0" encoding="utf-8"?>
<!-- Generator: Adobe Illustrator 21.0.2, SVG Export Plug-In . SVG Version: 6.00 Build 0)  -->
<svg version="1.1" id="레이어_1" xmlns="http://www.w3.org/2000/svg" xmlns:xlink="http://www.w3.org/1999/xlink" x="0px"
	 y="0px" viewBox="0 0 48.5 48.5" style="enable-background:new 0 0 48.5 48.5;" xml:space="preserve">
<style type="text/css">
	.st0{fill:none;stroke:#33475B;stroke-width:1.5;stroke-linecap:round;stroke-linejoin:round;}
	.st1{fill:#33475B;}
	.st2{fill:none;}
</style>
<title>date</title>
<g id="레이어_2">
	<g id="레이어_1-2">
		<path class="st0" d="M30.5,39.7H18c-4.2,0-7.5-3.4-7.6-7.5V19.7c0-4.2,3.4-7.6,7.5-7.6c0,0,0,0,0,0h12.5c4.2,0,7.5,3.4,7.5,7.6
			v12.4C38,36.3,34.6,39.7,30.5,39.7z"/>
		<circle class="st1" cx="31.6" cy="21.9" r="1.2"/>
		<circle class="st1" cx="26.7" cy="21.9" r="1.2"/>
		<circle class="st1" cx="21.8" cy="21.9" r="1.2"/>
		<circle class="st1" cx="31.6" cy="26.1" r="1.2"/>
		<circle class="st1" cx="26.7" cy="26.1" r="1.2"/>
		<circle class="st1" cx="21.8" cy="26.1" r="1.2"/>
		<circle class="st1" cx="16.9" cy="26.1" r="1.2"/>
		<circle class="st1" cx="31.6" cy="30.3" r="1.2"/>
		<circle class="st1" cx="26.7" cy="30.3" r="1.2"/>
		<circle class="st1" cx="21.8" cy="30.3" r="1.2"/>
		<circle class="st1" cx="16.9" cy="30.3" r="1.2"/>
		<circle class="st1" cx="26.7" cy="34.5" r="1.2"/>
		<circle class="st1" cx="21.8" cy="34.5" r="1.2"/>
		<circle class="st1" cx="16.9" cy="34.5" r="1.2"/>
		<line class="st0" x1="18.7" y1="8.8" x2="18.7" y2="15.6"/>
		<line class="st0" x1="37.5" y1="18.5" x2="10.9" y2="18.5"/>
		<line class="st0" x1="29.4" y1="8.8" x2="29.4" y2="15.6"/>
		<rect y="0" class="st2" width="48.5" height="48.5"/>
	</g>
</g>
</svg>
