<?xml version="1.0" encoding="utf-8"?>
<!-- Generator: Adobe Illustrator 21.0.2, SVG Export Plug-In . SVG Version: 6.00 Build 0)  -->
<svg version="1.1" id="레이어_1" xmlns="http://www.w3.org/2000/svg" xmlns:xlink="http://www.w3.org/1999/xlink" x="0px"
	 y="0px" viewBox="0 0 48.5 48.5" style="enable-background:new 0 0 48.5 48.5;" xml:space="preserve">
<style type="text/css">
	.st0{fill:#FFFFFF;}
	.st1{fill:none;}
</style>
<title>github</title>
<g id="레이어_2">
	<g id="레이어_1-2">
		<path id="Fill-123" class="st0" d="M24.2,9.6c-8.3,0-15,6.7-15,15c0,6.5,4.1,12.2,10.3,14.2c0.8,0.1,1-0.3,1-0.7s0-1.3,0-2.5
			c-4.2,0.9-5.1-2-5.1-2c-0.3-0.9-0.9-1.7-1.7-2.2c-1.4-0.9,0.1-0.9,0.1-0.9c1,0.1,1.8,0.7,2.3,1.5c0.8,1.5,2.8,2.1,4.3,1.3
			c0,0,0,0,0,0c0.1-0.8,0.4-1.5,1-2c-3.3-0.4-6.8-1.7-6.8-7.4c0-1.5,0.5-2.9,1.5-4c-0.5-1.3-0.4-2.7,0.1-4c0,0,1.3-0.4,4.1,1.5
			c2.5-0.7,5.1-0.7,7.5,0c2.9-1.9,4.1-1.5,4.1-1.5c0.6,1.3,0.6,2.7,0.2,4c1,1.1,1.6,2.5,1.5,4c0,5.8-3.5,7-6.9,7.4
			c0.7,0.7,1.1,1.7,1,2.8c0,2,0,3.6,0,4.1s0.3,0.9,1,0.7c7.8-2.7,12.1-11.2,9.4-19C36.4,13.7,30.7,9.6,24.2,9.6"/>
		<rect y="0" class="st1" width="48.5" height="48.5"/>
	</g>
</g>
</svg>
