<svg xmlns="http://www.w3.org/2000/svg" viewBox="0 0 48.5 48.5"><defs><style>.cls-1{fill:#33475b;}.cls-2{fill:none;}</style></defs><title>github</title><g id="레이어_2" data-name="레이어 2"><g id="레이어_1-2" data-name="레이어 1"><path id="Fill-123" class="cls-1" d="M24.25,9.62a15,15,0,0,0-4.74,29.23c.75.14,1-.32,1-.72s0-1.3,0-2.55c-4.17.91-5.05-2-5.05-2a4,4,0,0,0-1.66-2.19c-1.36-.93.1-.91.1-.91A3.15,3.15,0,0,1,16.2,32a3.19,3.19,0,0,0,4.37,1.25,3.21,3.21,0,0,1,1-2c-3.33-.38-6.83-1.66-6.83-7.41a5.79,5.79,0,0,1,1.54-4,5.39,5.39,0,0,1,.15-4s1.26-.4,4.13,1.54a14.21,14.21,0,0,1,7.51,0c2.86-1.94,4.12-1.54,4.12-1.54a5.39,5.39,0,0,1,.15,4,5.78,5.78,0,0,1,1.54,4c0,5.76-3.51,7-6.85,7.4A3.58,3.58,0,0,1,28,34c0,2,0,3.62,0,4.11s.27.87,1,.72A15,15,0,0,0,24.25,9.62"/><rect class="cls-2" width="48.5" height="48.5"/></g></g></svg>