<?xml version="1.0" encoding="utf-8"?>
<!-- Generator: Adobe Illustrator 21.0.2, SVG Export Plug-In . SVG Version: 6.00 Build 0)  -->
<svg version="1.1" id="레이어_1" xmlns="http://www.w3.org/2000/svg" xmlns:xlink="http://www.w3.org/1999/xlink" x="0px"
	 y="0px" viewBox="0 0 48.5 48.5" style="enable-background:new 0 0 48.5 48.5;" xml:space="preserve">
<style type="text/css">
	.st0{fill:#FFFFFF;}
	.st1{fill:none;}
</style>
<title>instagram</title>
<path id="Fill-1" class="st0" d="M24.2,10c-3.9,0-4.4,0-5.9,0.1c-1.2,0-2.4,0.2-3.5,0.7c-1.9,0.7-3.4,2.3-4.2,4.2
	c-0.4,1.1-0.6,2.3-0.7,3.5c-0.1,1.5-0.1,2-0.1,5.9s0,4.4,0.1,5.9c0,1.2,0.2,2.4,0.7,3.5c0.7,1.9,2.3,3.4,4.2,4.2
	c1.1,0.4,2.3,0.6,3.5,0.7c1.5,0.1,2,0.1,5.9,0.1s4.4,0,5.9-0.1c1.2,0,2.4-0.2,3.5-0.7c1.9-0.7,3.4-2.3,4.2-4.2
	c0.4-1.1,0.6-2.3,0.7-3.5c0.1-1.5,0.1-2,0.1-5.9s0-4.4-0.1-5.9c0-1.2-0.2-2.4-0.7-3.5c-0.7-1.9-2.3-3.4-4.2-4.2
	c-1.1-0.4-2.3-0.6-3.5-0.7C28.6,10,28.1,10,24.2,10 M24.3,12.6c3.8,0,4.3,0,5.8,0.1c0.9,0,1.8,0.2,2.6,0.5c1.2,0.5,2.2,1.5,2.7,2.7
	c0.3,0.8,0.5,1.7,0.5,2.7c0.1,1.5,0.1,2,0.1,5.8s0,4.3-0.1,5.8c0,0.9-0.2,1.8-0.5,2.6c-0.5,1.2-1.5,2.2-2.7,2.7
	c-0.8,0.3-1.7,0.5-2.6,0.5C28.5,36,28,36,24.3,36s-4.3,0-5.8-0.1c-0.9,0-1.8-0.2-2.6-0.5c-1.2-0.5-2.2-1.5-2.7-2.7
	c-0.3-0.9-0.5-1.8-0.5-2.7c-0.1-1.5-0.1-2-0.1-5.8s0-4.3,0.1-5.8c0-0.9,0.2-1.8,0.5-2.7c0.5-1.2,1.5-2.2,2.7-2.7
	c0.8-0.3,1.7-0.5,2.6-0.5C20,12.5,20.5,12.5,24.3,12.6"/>
<path id="Fill-4" class="st0" d="M24.2,16.6c-4.2,0-7.7,3.4-7.7,7.7s3.4,7.7,7.7,7.7s7.7-3.4,7.7-7.7S28.5,16.6,24.2,16.6
	C24.2,16.6,24.2,16.6,24.2,16.6 M24.2,29.2c-2.7,0-4.9-2.2-4.9-4.9c0-2.7,2.2-4.9,4.9-4.9c2.7,0,4.9,2.2,4.9,4.9S27,29.2,24.2,29.2
	L24.2,29.2"/>
<path id="Fill-6" class="st0" d="M33.8,16.7c0,1-0.8,1.8-1.8,1.8c-1,0-1.8-0.8-1.8-1.8c0-1,0.8-1.7,1.7-1.8
	C33,14.9,33.8,15.7,33.8,16.7"/>
<rect y="0" class="st1" width="48.5" height="48.5"/>
</svg>
