<?xml version="1.0" encoding="utf-8"?>
<!-- Generator: Adobe Illustrator 21.0.2, SVG Export Plug-In . SVG Version: 6.00 Build 0)  -->
<svg version="1.1" id="레이어_1" xmlns="http://www.w3.org/2000/svg" xmlns:xlink="http://www.w3.org/1999/xlink" x="0px"
	 y="0px" viewBox="0 0 48.5 48.5" style="enable-background:new 0 0 48.5 48.5;" xml:space="preserve">
<style type="text/css">
	.st0{fill:#33475B;}
	.st1{fill:none;}
	.st2{fill:none;stroke:#33475B;stroke-width:3;stroke-linecap:round;stroke-miterlimit:10;}
</style>
<title>instagram</title>
<g id="레이어_2">
	<g id="레이어_1-2">
		<path id="Fill-1" class="st0" d="M24.2,10c-3.9,0-4.4,0-5.9,0.1c-1.2,0-2.4,0.2-3.5,0.7c-1.9,0.7-3.4,2.3-4.2,4.2
			c-0.4,1.1-0.6,2.3-0.7,3.5c-0.1,1.5-0.1,2-0.1,5.9s0,4.4,0.1,5.9c0,1.2,0.2,2.4,0.7,3.5c0.7,1.9,2.3,3.4,4.2,4.2
			c1.1,0.4,2.3,0.6,3.5,0.7c1.5,0.1,2,0.1,5.9,0.1s4.4,0,5.9-0.1c1.2,0,2.4-0.2,3.5-0.7c1.9-0.7,3.4-2.3,4.2-4.2
			c0.4-1.1,0.6-2.3,0.7-3.5c0.1-1.5,0.1-2,0.1-5.9s0-4.4-0.1-5.9c0-1.2-0.2-2.4-0.7-3.5c-0.7-1.9-2.3-3.4-4.2-4.2
			c-1.1-0.4-2.3-0.6-3.5-0.7C28.6,10,28.1,10,24.2,10 M24.3,12.6c3.8,0,4.3,0,5.8,0.1c0.9,0,1.8,0.2,2.6,0.5
			c1.2,0.5,2.2,1.5,2.7,2.7c0.3,0.8,0.5,1.7,0.5,2.7c0.1,1.5,0.1,2,0.1,5.8s0,4.3-0.1,5.8c0,0.9-0.2,1.8-0.5,2.6
			c-0.5,1.2-1.5,2.2-2.7,2.7c-0.8,0.3-1.7,0.5-2.6,0.5C28.5,36,28,36,24.3,36s-4.3,0-5.8-0.1c-0.9,0-1.8-0.2-2.6-0.5
			c-1.2-0.5-2.2-1.5-2.7-2.7c-0.3-0.9-0.5-1.8-0.5-2.7c-0.1-1.5-0.1-2-0.1-5.8s0-4.3,0.1-5.8c0-0.9,0.2-1.8,0.5-2.7
			c0.5-1.2,1.5-2.2,2.7-2.7c0.8-0.3,1.7-0.5,2.6-0.5C20,12.5,20.5,12.5,24.3,12.6"/>
		<rect y="0" class="st1" width="48.5" height="48.5"/>
	</g>
</g>
<path class="st2" d="M36.5,17.3l-8.3,8.3c-2.3,2.3-6,2.3-8.3,0l-8.2-8.2"/>
</svg>
