<?xml version="1.0" encoding="utf-8"?>
<!-- Generator: Adobe Illustrator 21.0.2, SVG Export Plug-In . SVG Version: 6.00 Build 0)  -->
<svg version="1.1" id="레이어_1" xmlns="http://www.w3.org/2000/svg" xmlns:xlink="http://www.w3.org/1999/xlink" x="0px"
	 y="0px" viewBox="0 0 75.5 75.5" style="enable-background:new 0 0 75.5 75.5;" xml:space="preserve">
<style type="text/css">
	.st0{fill:none;stroke:#33475B;stroke-width:1.5;stroke-linecap:round;stroke-linejoin:round;}
</style>
<title>자산 141</title>
<path class="st0" d="M49.5,54.4L41.9,62c-1.8,1.7-4.6,1.7-6.3,0L28,54.4"/>
<line class="st0" x1="38.7" y1="63.3" x2="38.6" y2="35.2"/>
<path class="st0" d="M30.1,50.2h-11c-7.2,0-13-5.8-13-13c0-6.7,5.1-12.3,11.7-12.9c2.1-7.1,8.7-12.1,16.3-12.1
	c6.9,0,12.9,4.1,15.6,10.2c0.8-0.2,1.6-0.2,2.4-0.2c5.9,0,10.9,4.3,11.9,10c4.6,0.4,8.1,4.3,8.1,9c0,5-4,9-9,9h-15"/>
</svg>
