<?xml version="1.0" encoding="utf-8"?>
<!-- Generator: Adobe Illustrator 21.0.2, SVG Export Plug-In . SVG Version: 6.00 Build 0)  -->
<svg version="1.1" id="레이어_1" xmlns="http://www.w3.org/2000/svg" xmlns:xlink="http://www.w3.org/1999/xlink" x="0px"
	 y="0px" viewBox="0 0 48.5 48.5" style="enable-background:new 0 0 48.5 48.5;" xml:space="preserve">
<style type="text/css">
	.st0{fill:none;}
	.st1{fill:#33475B;stroke:#33475B;stroke-width:0.5;stroke-miterlimit:10;}
	.st2{fill:none;stroke:#33475B;stroke-width:2;stroke-linecap:round;stroke-linejoin:round;}
</style>
<title>자산 146</title>
<rect y="0" class="st0" width="48.5" height="48.5"/>
<path class="st1" d="M29.4,25.1c-0.8,0-1.8,0.1-3,0.4c-1.2-0.9-2.4-2-3.4-3.1c0.3-3.4-0.2-4.8-0.7-5.4c-0.4-0.5-1-0.6-1.6-0.4
	c-0.7,0.2-1,0.7-1.1,1c-0.4,1.4,1.3,3.8,2.5,5.1c-0.2,1.5-0.5,3.2-1,4.7c-1.1,0.5-2,1.1-2.7,1.6c-0.9,0.7-1.3,1.3-1.4,2
	c-0.1,0.5,0.1,1,0.5,1.4c0.3,0.3,0.7,0.5,1,0.5c0,0,0,0,0,0c1.6,0,2.7-2.9,3.3-4.8c1.4-0.6,2.9-1.2,4.4-1.6c1.3,0.9,2.9,2,4.2,2
	c0.8,0,1.4-0.4,1.5-1.3c0.1-0.7-0.1-1.1-0.3-1.3C31.3,25.3,30.5,25.1,29.4,25.1z M18.5,31.9c-0.1,0-0.3-0.1-0.4-0.2
	c-0.3-0.2-0.3-0.4-0.2-0.6c0.1-0.7,1.2-1.6,2.8-2.5C19.9,30.8,19,31.9,18.5,31.9z M20.4,17.8c0-0.1,0.1-0.3,0.5-0.4
	c0.1,0,0.2,0,0.3,0c0.2,0,0.3,0.1,0.5,0.2c0.5,0.5,0.7,1.9,0.6,3.8C21.1,20.1,20.2,18.5,20.4,17.8z M25.3,25.8
	c-1,0.3-2.1,0.7-3.1,1.1l0,0l0,0c0.3-1.1,0.5-2.2,0.7-3.3l0,0l0,0C23.6,24.3,24.5,25.1,25.3,25.8L25.3,25.8L25.3,25.8z M31.1,27
	c-0.1,0.4-0.3,0.5-0.7,0.5c-0.7,0-1.7-0.5-3-1.3c0.7-0.1,1.4-0.2,2-0.2c1.1,0,1.5,0.3,1.6,0.4C31,26.4,31.2,26.6,31.1,27z"/>
<g>
	<path class="st2" d="M30.5,14v-3.4h-16c-1.2,0-2.2,1-2.2,2.2v24.3c0,1.2,1,2.2,2.2,2.2h19.5c1.2,0,2.2-1,2.2-2.2V16.2h-3.4
		C31.5,16.2,30.5,15.2,30.5,14z"/>
	<path class="st2" d="M30.5,14c0,1.2,1,2.2,2.2,2.2h3.4l-5.6-5.6V14z"/>
</g>
</svg>
