<?xml version="1.0" encoding="utf-8"?>
<!-- Generator: Adobe Illustrator 21.0.2, SVG Export Plug-In . SVG Version: 6.00 Build 0)  -->
<svg version="1.1" id="레이어_1" xmlns="http://www.w3.org/2000/svg" xmlns:xlink="http://www.w3.org/1999/xlink" x="0px"
	 y="0px" viewBox="0 0 48.5 48.5" style="enable-background:new 0 0 48.5 48.5;" xml:space="preserve">
<style type="text/css">
	.st0{fill:none;stroke:#33475B;stroke-width:2.5;stroke-miterlimit:10;}
	.st1{fill:none;}
</style>
<path class="st0" d="M39.6,20.7h-30c-0.6,0-1.1-0.5-1.1-1.1V13c0-0.6,0.5-1.1,1.1-1.1h30c0.6,0,1.1,0.5,1.1,1.1v6.6
	C40.7,20.2,40.2,20.7,39.6,20.7z"/>
<path class="st0" d="M39.6,36.6h-30c-0.6,0-1.1-0.5-1.1-1.1v-6.6c0-0.6,0.5-1.1,1.1-1.1h30c0.6,0,1.1,0.5,1.1,1.1v6.6
	C40.7,36.1,40.2,36.6,39.6,36.6z"/>
<title>image</title>
<rect y="0" class="st1" width="48.5" height="48.5"/>
</svg>
